<svg xmlns="http://www.w3.org/2000/svg" viewBox="0 0 400 300" preserveAspectRatio="xMidYMid slice">
  <defs>
    <linearGradient id="lpSky" x1="0" y1="0" x2="0" y2="1">
      <stop offset="0%" stop-color="#3c2a52" />
      <stop offset="45%" stop-color="#8a4f5e" />
      <stop offset="100%" stop-color="#e79a5c" />
    </linearGradient>
    <linearGradient id="lpRiver" x1="0" y1="0" x2="0" y2="1">
      <stop offset="0%" stop-color="#e79a5c" />
      <stop offset="100%" stop-color="#5a3548" />
    </linearGradient>
  </defs>
  <rect width="400" height="300" fill="url(#lpSky)" />
  <circle cx="200" cy="150" r="40" fill="#ffd9a0" opacity="0.85" />

  <g fill="#20141f">
    <rect x="80" y="150" width="60" height="60" />
    <path d="M75 150 L145 150 L110 118 Z" />
    <rect x="260" y="150" width="60" height="60" />
    <path d="M255 150 L325 150 L290 118 Z" />
    <rect x="170" y="130" width="60" height="80" />
    <path d="M164 130 L236 130 L200 95 Z" />
    <rect x="192" y="80" width="16" height="18" />
  </g>

  <g fill="#ffcf7a" opacity="0.9">
    <circle cx="95" cy="180" r="3" />
    <circle cx="120" cy="180" r="3" />
    <circle cx="280" cy="180" r="3" />
    <circle cx="300" cy="180" r="3" />
    <circle cx="185" cy="160" r="3" />
    <circle cx="215" cy="160" r="3" />
  </g>

  <rect y="210" width="400" height="90" fill="url(#lpRiver)" />
  <g fill="#ffd9a0" opacity="0.3">
    <ellipse cx="120" cy="245" rx="50" ry="4" />
    <ellipse cx="280" cy="270" rx="60" ry="5" />
  </g>
</svg>
