<svg xmlns="http://www.w3.org/2000/svg" viewBox="0 0 400 400" preserveAspectRatio="xMidYMid slice">
  <defs>
    <linearGradient id="pxNightSky" x1="0" y1="0" x2="0" y2="1">
      <stop offset="0%" stop-color="#0f1230" />
      <stop offset="100%" stop-color="#312a5e" />
    </linearGradient>
    <radialGradient id="pxGlow" cx="50%" cy="78%" r="45%">
      <stop offset="0%" stop-color="#ffce7a" stop-opacity="0.55" />
      <stop offset="100%" stop-color="#ffce7a" stop-opacity="0" />
    </radialGradient>
  </defs>
  <rect width="400" height="400" fill="url(#pxNightSky)" />
  <circle cx="70" cy="70" r="2" fill="#ffffff" opacity="0.8" />
  <circle cx="140" cy="40" r="1.5" fill="#ffffff" opacity="0.6" />
  <circle cx="320" cy="60" r="2" fill="#ffffff" opacity="0.7" />
  <circle cx="260" cy="30" r="1.5" fill="#ffffff" opacity="0.5" />
  <circle cx="200" cy="300" r="150" fill="url(#pxGlow)" />

  <g fill="#181433">
    <rect x="130" y="230" width="140" height="130" />
    <rect x="110" y="345" width="180" height="15" />
    <rect x="150" y="150" width="100" height="90" />
    <rect x="140" y="120" width="18" height="120" />
    <rect x="242" y="120" width="18" height="120" />
    <path d="M150 150 L250 150 L235 110 L165 110 Z" />
    <rect x="185" y="90" width="30" height="30" />
    <path d="M185 90 L215 90 L200 60 Z" />
    <rect x="196" y="45" width="8" height="20" />
  </g>
  <g fill="#ffce7a" opacity="0.85">
    <rect x="160" y="260" width="10" height="16" />
    <rect x="195" y="260" width="10" height="16" />
    <rect x="230" y="260" width="10" height="16" />
    <rect x="160" y="300" width="10" height="16" />
    <rect x="195" y="300" width="10" height="16" />
    <rect x="230" y="300" width="10" height="16" />
  </g>

  <rect x="0" y="360" width="400" height="40" fill="#0c0a1e" />
</svg>
