<svg xmlns="http://www.w3.org/2000/svg" viewBox="0 0 400 300" preserveAspectRatio="xMidYMid slice">
  <defs>
    <linearGradient id="vvSky" x1="0" y1="0" x2="0" y2="1">
      <stop offset="0%" stop-color="#fbd9a6" />
      <stop offset="55%" stop-color="#f4b177" />
      <stop offset="100%" stop-color="#e78b6a" />
    </linearGradient>
    <linearGradient id="vvRiver" x1="0" y1="0" x2="0" y2="1">
      <stop offset="0%" stop-color="#f7c98f" />
      <stop offset="100%" stop-color="#c97b56" />
    </linearGradient>
  </defs>
  <rect width="400" height="300" fill="url(#vvSky)" />
  <circle cx="200" cy="130" r="46" fill="#fff3d6" opacity="0.85" />

  <g fill="#6b4a52" opacity="0.9">
    <path d="M-10 190 C20 130 60 165 90 110 C110 75 140 100 150 150 L150 210 L-10 210 Z" />
    <path d="M120 200 C150 150 190 175 210 130 C230 95 260 120 270 165 L270 220 L120 220 Z" />
    <path d="M250 195 C280 145 320 170 340 125 C355 95 385 115 410 150 L410 215 L250 215 Z" />
  </g>

  <rect y="205" width="400" height="95" fill="url(#vvRiver)" />
  <g fill="#ffffff" opacity="0.25">
    <ellipse cx="100" cy="245" rx="40" ry="4" />
    <ellipse cx="260" cy="270" rx="55" ry="5" />
  </g>
</svg>
